<svg width="35" height="30" viewBox="0 0 35 30" fill="none"
    xmlns="http://www.w3.org/2000/svg">
    <path d="M23.6336 4.28579H10.7423C9.54866 4.28579 8.59375 3.33339 8.59375 2.1429C8.59375 0.952398 9.54866 0 10.7423 0H23.6336C24.8272 0 25.7821 0.952398 25.7821 2.1429C25.7821 3.33339 24.8272 4.28579 23.6336 4.28579Z" fill="#141416"/>
    <path d="M23.6336 29.9997H10.7423C9.54866 29.9997 8.59375 29.0473 8.59375 27.8568C8.59375 26.6663 9.54866 25.7139 10.7423 25.7139H23.6336C24.8272 25.7139 25.7821 26.6663 25.7821 27.8568C25.7821 29.0473 24.8272 29.9997 23.6336 29.9997Z" fill="#141416"/>
    <path d="M8.59397 10.7145H6.44542C5.25178 10.7145 4.29688 9.76211 4.29688 8.57161C4.29688 7.38111 5.25178 6.42871 6.44542 6.42871H8.59397C9.78761 6.42871 10.7425 7.38111 10.7425 8.57161C10.7425 9.76211 9.78761 10.7145 8.59397 10.7145Z" fill="#141416"/>
    <path d="M8.59419 17.1432H2.14855C0.95491 17.1432 0 16.1908 0 15.0003C0 13.8098 0.95491 12.8574 2.14855 12.8574H8.59419C9.78783 12.8574 10.7427 13.8098 10.7427 15.0003C10.7427 16.1908 9.78783 17.1432 8.59419 17.1432Z" fill="#141416"/>
    <path d="M32.2309 17.1432H25.7853C24.5916 17.1432 23.6367 16.1908 23.6367 15.0003C23.6367 13.8098 24.5916 12.8574 25.7853 12.8574H32.2309C33.4245 12.8574 34.3795 13.8098 34.3795 15.0003C34.3795 16.1908 33.4245 17.1432 32.2309 17.1432Z" fill="#141416"/>
    <path d="M27.9305 10.7145H15.0392C13.8455 10.7145 12.8906 9.76211 12.8906 8.57161C12.8906 7.38111 13.8455 6.42871 15.0392 6.42871H27.9305C29.1241 6.42871 30.079 7.38111 30.079 8.57161C30.079 9.76211 29.1241 10.7145 27.9305 10.7145Z" fill="#056AE7"/>
    <path d="M27.9305 23.5719H15.0392C13.8455 23.5719 12.8906 22.6195 12.8906 21.429C12.8906 20.2385 13.8455 19.2861 15.0392 19.2861H27.9305C29.1241 19.2861 30.079 20.2385 30.079 21.429C30.079 22.6195 29.1241 23.5719 27.9305 23.5719Z" fill="#056AE7"/>
    <path d="M19.3363 17.1432H15.0392C13.8455 17.1432 12.8906 16.1908 12.8906 15.0003C12.8906 13.8098 13.8455 12.8574 15.0392 12.8574H19.3363C20.5299 12.8574 21.4848 13.8098 21.4848 15.0003C21.4848 16.1908 20.5299 17.1432 19.3363 17.1432Z" fill="#056AE7"/>
    <path d="M8.59397 23.5719H6.44542C5.25178 23.5719 4.29688 22.6195 4.29688 21.429C4.29688 20.2385 5.25178 19.2861 6.44542 19.2861H8.59397C9.78761 19.2861 10.7425 20.2385 10.7425 21.429C10.7425 22.6195 9.78761 23.5719 8.59397 23.5719Z" fill="#141416"/>
</svg>
