<svg width="18" height="18" viewBox="0 0 18 18" fill="none"
    xmlns="http://www.w3.org/2000/svg">
    <path d="M9 11C10.1046 11 11 10.1046 11 9C11 7.89543 10.1046 7 9 7C7.89543 7 7 7.89543 7 9C7 10.1046 7.89543 11 9 11Z" stroke="#056AE7" stroke-width="1.6" stroke-linecap="round" stroke-linejoin="round"/>
    <path d="M13.9337 10.9993C13.8449 11.2004 13.8184 11.4235 13.8577 11.6397C13.8969 11.856 14 12.0556 14.1537 12.2127L14.1937 12.2527C14.3176 12.3765 14.416 12.5236 14.4831 12.6854C14.5502 12.8473 14.5847 13.0208 14.5847 13.196C14.5847 13.3712 14.5502 13.5447 14.4831 13.7066C14.416 13.8685 14.3176 14.0155 14.1937 14.1393C14.0698 14.2633 13.9228 14.3617 13.7609 14.4288C13.599 14.4959 13.4255 14.5304 13.2503 14.5304C13.0751 14.5304 12.9016 14.4959 12.7397 14.4288C12.5779 14.3617 12.4308 14.2633 12.307 14.1393L12.267 14.0993C12.1099 13.9457 11.9103 13.8426 11.6941 13.8033C11.4778 13.7641 11.2547 13.7906 11.0537 13.8793C10.8565 13.9639 10.6883 14.1042 10.5699 14.283C10.4514 14.4619 10.3878 14.6715 10.387 14.886V14.9993C10.387 15.353 10.2465 15.6921 9.99647 15.9422C9.74642 16.1922 9.40728 16.3327 9.05366 16.3327C8.70004 16.3327 8.3609 16.1922 8.11085 15.9422C7.8608 15.6921 7.72033 15.353 7.72033 14.9993V14.9393C7.71516 14.7187 7.64374 14.5047 7.51533 14.3251C7.38693 14.1456 7.20748 14.0089 7.00033 13.9327C6.79925 13.8439 6.5762 13.8175 6.35993 13.8567C6.14367 13.8959 5.94411 13.999 5.78699 14.1527L5.74699 14.1927C5.62316 14.3167 5.47611 14.415 5.31425 14.4821C5.15238 14.5492 4.97888 14.5837 4.80366 14.5837C4.62844 14.5837 4.45494 14.5492 4.29307 14.4821C4.13121 14.415 3.98416 14.3167 3.86033 14.1927C3.73636 14.0689 3.63801 13.9218 3.57091 13.7599C3.50381 13.5981 3.46928 13.4246 3.46928 13.2493C3.46928 13.0741 3.50381 12.9006 3.57091 12.7388C3.63801 12.5769 3.73636 12.4298 3.86033 12.306L3.90033 12.266C4.05402 12.1089 4.15712 11.9093 4.19633 11.6931C4.23554 11.4768 4.20907 11.2538 4.12033 11.0527C4.03582 10.8555 3.8955 10.6873 3.71664 10.5689C3.53778 10.4504 3.32818 10.3869 3.11366 10.386H3.00033C2.6467 10.386 2.30756 10.2455 2.05752 9.99549C1.80747 9.74544 1.66699 9.4063 1.66699 9.05268C1.66699 8.69906 1.80747 8.35992 2.05752 8.10987C2.30756 7.85982 2.6467 7.71935 3.00033 7.71935H3.06033C3.28099 7.71419 3.495 7.64276 3.67452 7.51436C3.85405 7.38595 3.9908 7.20651 4.06699 6.99935C4.15574 6.79827 4.18221 6.57522 4.143 6.35896C4.10378 6.14269 4.00068 5.94313 3.84699 5.78602L3.80699 5.74602C3.68302 5.62218 3.58468 5.47513 3.51758 5.31327C3.45048 5.1514 3.41594 4.9779 3.41594 4.80268C3.41594 4.62746 3.45048 4.45396 3.51758 4.2921C3.58468 4.13023 3.68302 3.98318 3.80699 3.85935C3.93082 3.73538 4.07787 3.63703 4.23974 3.56994C4.4016 3.50284 4.5751 3.4683 4.75033 3.4683C4.92555 3.4683 5.09905 3.50284 5.26091 3.56994C5.42278 3.63703 5.56983 3.73538 5.69366 3.85935L5.73366 3.89935C5.89078 4.05304 6.09034 4.15614 6.3066 4.19535C6.52286 4.23456 6.74591 4.20809 6.94699 4.11935H7.00033C7.1975 4.03484 7.36567 3.89452 7.48412 3.71566C7.60257 3.5368 7.66614 3.32721 7.66699 3.11268V2.99935C7.66699 2.64573 7.80747 2.30659 8.05752 2.05654C8.30756 1.80649 8.6467 1.66602 9.00033 1.66602C9.35395 1.66602 9.69309 1.80649 9.94313 2.05654C10.1932 2.30659 10.3337 2.64573 10.3337 2.99935V3.05935C10.3345 3.27387 10.3981 3.48347 10.5165 3.66233C10.635 3.84119 10.8031 3.98151 11.0003 4.06602C11.2014 4.15476 11.4245 4.18123 11.6407 4.14202C11.857 4.10281 12.0565 3.99971 12.2137 3.84602L12.2537 3.80602C12.3775 3.68205 12.5245 3.5837 12.6864 3.5166C12.8483 3.4495 13.0218 3.41497 13.197 3.41497C13.3722 3.41497 13.5457 3.4495 13.7076 3.5166C13.8694 3.5837 14.0165 3.68205 14.1403 3.80602C14.2643 3.92985 14.3626 4.0769 14.4297 4.23876C14.4968 4.40063 14.5314 4.57413 14.5314 4.74935C14.5314 4.92457 14.4968 5.09807 14.4297 5.25994C14.3626 5.4218 14.2643 5.56885 14.1403 5.69268L14.1003 5.73268C13.9466 5.8898 13.8435 6.08936 13.8043 6.30562C13.7651 6.52189 13.7916 6.74494 13.8803 6.94602V6.99935C13.9648 7.19653 14.1052 7.36469 14.284 7.48314C14.4629 7.60159 14.6725 7.66516 14.887 7.66602H15.0003C15.3539 7.66602 15.6931 7.80649 15.9431 8.05654C16.1932 8.30659 16.3337 8.64573 16.3337 8.99935C16.3337 9.35297 16.1932 9.69211 15.9431 9.94216C15.6931 10.1922 15.3539 10.3327 15.0003 10.3327H14.9403C14.7258 10.3335 14.5162 10.3971 14.3373 10.5156C14.1585 10.634 14.0182 10.8022 13.9337 10.9993V10.9993Z" stroke="#056AE7" stroke-width="1.6" stroke-linecap="round" stroke-linejoin="round"/>
</svg>
