<svg width="512" height="40" fill="none" xmlns="http://www.w3.org/2000/svg"><g filter="url(#filter0_i)"><path d="M0 4a4 4 0 014-4h124v40H4a4 4 0 01-4-4V4z" fill="#056AE7"/><path d="M54.252 23.116a.334.334 0 00-.236-.15 2.318 2.318 0 01-.39-4.51.333.333 0 00.18-.497A3.89 3.89 0 0051 16a5.492 5.492 0 00-1.746.374c-.4.161-.824.26-1.254.293a4.213 4.213 0 01-1.254-.293A5.492 5.492 0 0045 16c-1.245 0-3.667 1.765-3.667 5 0 3.075 2.243 7 4 7a4.253 4.253 0 001.933-.445c.226-.125.476-.2.734-.222.257.021.507.097.733.222.6.298 1.263.45 1.933.445 1.394 0 2.966-2.392 3.625-4.609a.333.333 0 00-.04-.275zM47.666 16a3.67 3.67 0 003.667-3.667A.333.333 0 0051 12a3.67 3.67 0 00-3.667 3.667c0 .184.15.333.333.333zM66.812 24h-1.638v-9.338h1.638V24zm9.769-1.19c-.896.905-2.04 1.358-3.43 1.358-1.39 0-2.534-.453-3.43-1.358-.896-.915-1.344-2.072-1.344-3.472s.448-2.553 1.344-3.458c.896-.915 2.04-1.372 3.43-1.372 1.39 0 2.534.457 3.43 1.372.896.905 1.344 2.058 1.344 3.458 0 1.4-.448 2.557-1.344 3.472zm-3.43-.098c.924 0 1.67-.317 2.24-.952.57-.644.854-1.451.854-2.422 0-.98-.285-1.787-.854-2.422-.57-.635-1.316-.952-2.24-.952-.934 0-1.685.317-2.254.952-.56.635-.84 1.442-.84 2.422 0 .98.28 1.787.84 2.422.57.635 1.32.952 2.254.952zm9.543 1.456c-1.606 0-2.87-.495-3.794-1.484l.91-1.26c.802.859 1.787 1.288 2.954 1.288.625 0 1.092-.126 1.4-.378.317-.252.476-.55.476-.896 0-.355-.187-.635-.56-.84-.373-.215-.826-.383-1.358-.504a21.727 21.727 0 01-1.61-.434 3.095 3.095 0 01-1.358-.854c-.374-.401-.56-.92-.56-1.554 0-.784.313-1.433.938-1.946.634-.523 1.456-.784 2.464-.784 1.437 0 2.604.434 3.5 1.302l-.938 1.218c-.71-.71-1.61-1.064-2.702-1.064-.486 0-.873.107-1.162.322a.986.986 0 00-.42.84c0 .233.098.43.294.588.205.159.466.29.784.392.317.093.667.187 1.05.28.392.093.78.21 1.162.35.392.13.746.294 1.064.49.317.196.574.467.77.812.205.345.308.756.308 1.232 0 .84-.303 1.53-.91 2.072-.607.541-1.508.812-2.702.812z" fill="#fff"/></g><g filter="url(#filter1_i)"><path fill="#fff" d="M128 0h128v40H128z"/><g clip-path="url(#clip0)"><path d="M156.833 17.336a1 1 0 00-1 1V23a1 1 0 002 0v-4.665a1 1 0 00-1-1zM168.164 17.336a1 1 0 00-1 1V23a1 1 0 002 0v-4.665a1 1 0 00-1-1zM166.164 17.336h-7.332a.333.333 0 00-.333.333v5.332c0 .792.557 1.475 1.333 1.633V27a1 1 0 002 0v-2.332h1.333V27a1 1 0 101.999 0v-2.366a1.666 1.666 0 001.333-1.633V17.67a.333.333 0 00-.333-.333zM164.921 13.385l.812-.812a.334.334 0 10-.463-.48l-.008.009-.946.946a4.563 4.563 0 00-3.635 0l-.946-.947a.333.333 0 00-.471.471l.811.813a3.519 3.519 0 00-1.576 2.951c0 .184.149.333.333.333h7.332c.184 0 .333-.149.333-.333a3.516 3.516 0 00-1.576-2.951z" fill="#9BC3F5"/><path d="M160.832 15.336a.334.334 0 100-.667.334.334 0 000 .667zM164.165 15.336a.334.334 0 100-.667.334.334 0 000 .667z" fill="#fff"/><path d="M187.95 24h-1.862l-.686-1.792h-4.284L180.432 24h-1.862l3.668-9.338h2.044L187.95 24zm-3.01-3.234l-1.68-4.452-1.68 4.452h3.36zM194.962 24h-1.47v-4.228c0-.933-.453-1.4-1.358-1.4-.355 0-.686.089-.994.266a2.382 2.382 0 00-.742.644V24h-1.47v-6.762h1.47v.924a3.203 3.203 0 011.008-.77 2.97 2.97 0 011.372-.322c.718 0 1.26.187 1.624.56.373.373.56.91.56 1.61V24zm8.139 0h-1.47v-.924c-.56.728-1.283 1.092-2.17 1.092s-1.61-.317-2.17-.952c-.56-.635-.84-1.498-.84-2.59 0-1.083.28-1.946.84-2.59.56-.644 1.283-.966 2.17-.966s1.61.369 2.17 1.106v-3.514h1.47V24zm-3.22-1.134c.345 0 .681-.084 1.008-.252.327-.168.574-.383.742-.644v-2.688a1.871 1.871 0 00-.742-.644 2.09 2.09 0 00-1.008-.266c-.579 0-1.041.21-1.386.63-.345.42-.518.961-.518 1.624 0 .663.173 1.204.518 1.624.345.41.807.616 1.386.616zM206.476 24h-1.47v-6.762h1.47v.994c.261-.336.588-.611.98-.826a2.504 2.504 0 011.218-.322v1.456a2.233 2.233 0 00-.462-.042c-.308 0-.64.093-.994.28-.346.177-.593.383-.742.616V24zm6.435.168c-1.045 0-1.885-.34-2.52-1.022-.634-.69-.952-1.535-.952-2.534 0-.999.318-1.839.952-2.52.635-.681 1.475-1.022 2.52-1.022 1.055 0 1.9.34 2.534 1.022.635.681.952 1.521.952 2.52 0 1.008-.317 1.853-.952 2.534-.634.681-1.479 1.022-2.534 1.022zm0-1.302c.607 0 1.083-.215 1.428-.644.355-.439.532-.975.532-1.61 0-.625-.177-1.153-.532-1.582-.345-.439-.821-.658-1.428-.658-.597 0-1.073.22-1.428.658-.345.43-.518.957-.518 1.582 0 .635.173 1.171.518 1.61.355.43.831.644 1.428.644zm5.702-6.454a.906.906 0 01-.644-.266.875.875 0 01-.266-.644c0-.252.088-.467.266-.644a.906.906 0 01.644-.266c.252 0 .466.089.644.266a.878.878 0 01.266.644.878.878 0 01-.266.644.878.878 0 01-.644.266zm.742 7.588h-1.47v-6.762h1.47V24zm8.137 0h-1.47v-.924c-.56.728-1.284 1.092-2.17 1.092-.887 0-1.61-.317-2.17-.952-.56-.635-.84-1.498-.84-2.59 0-1.083.28-1.946.84-2.59.56-.644 1.283-.966 2.17-.966.886 0 1.61.369 2.17 1.106v-3.514h1.47V24zm-3.22-1.134c.345 0 .681-.084 1.008-.252.326-.168.574-.383.742-.644v-2.688a1.878 1.878 0 00-.742-.644 2.09 2.09 0 00-1.008-.266c-.579 0-1.041.21-1.386.63-.346.42-.518.961-.518 1.624 0 .663.172 1.204.518 1.624.345.41.807.616 1.386.616z" fill="#9BC3F5"/></g></g><g filter="url(#filter2_i)"><path fill="#fff" d="M256 0h128v40H256z"/><path d="M306.44 14h-10.88c-.751 0-1.36.597-1.36 1.333V22c0 .736.609 1.333 1.36 1.333h10.88c.751 0 1.36-.597 1.36-1.333v-6.667c0-.736-.609-1.333-1.36-1.333zM298 26h6M301 23.334v2.667" stroke="#9BC3F5" stroke-width="1.6" stroke-linecap="round" stroke-linejoin="round"/><path d="M327.377 24h-1.75l-1.82-6.888L322.001 24h-1.75l-2.674-9.338h1.834l1.82 7.196 1.932-7.196h1.302l1.932 7.196 1.806-7.196h1.834L327.377 24zm6.276.168c-1.027 0-1.876-.327-2.548-.98-.663-.663-.994-1.521-.994-2.576 0-.99.322-1.825.966-2.506.653-.69 1.475-1.036 2.464-1.036.999 0 1.801.345 2.408 1.036.616.69.924 1.573.924 2.646v.35h-5.222c.056.532.275.975.658 1.33.383.355.882.532 1.498.532.345 0 .691-.065 1.036-.196.355-.13.649-.313.882-.546l.672.966c-.681.653-1.596.98-2.744.98zm1.792-4.102a1.935 1.935 0 00-.518-1.246c-.317-.364-.779-.546-1.386-.546-.579 0-1.031.182-1.358.546-.327.355-.509.77-.546 1.246h3.808zm4.349 1.904c.159.252.401.467.728.644.336.168.672.252 1.008.252.579 0 1.041-.205 1.386-.616.355-.42.532-.961.532-1.624 0-.663-.177-1.204-.532-1.624-.345-.42-.807-.63-1.386-.63-.336 0-.667.089-.994.266a1.975 1.975 0 00-.742.658v2.674zm0 2.03h-1.47v-9.338h1.47v3.514c.551-.737 1.274-1.106 2.17-1.106.877 0 1.596.327 2.156.98.56.644.84 1.503.84 2.576 0 1.092-.28 1.955-.84 2.59-.56.635-1.279.952-2.156.952-.887 0-1.61-.364-2.17-1.092V24z" fill="#9BC3F5"/></g><path d="M384 0h124a4 4 0 014 4v32a4 4 0 01-4 4H384V0z" fill="#fff"/><path d="M423.836 19.589l-3.7-3.92a.6.6 0 10-.873.823L422.575 20l-3.312 3.509a.6.6 0 00.873.824l3.7-3.92a.6.6 0 000-.824zM412.736 23.509L409.425 20l3.311-3.508a.6.6 0 10-.872-.823l-3.7 3.92a.599.599 0 000 .824l3.7 3.92a.598.598 0 00.848.024.6.6 0 00.024-.848zM416.97 13.648a.601.601 0 00-.684.502l-1.76 11.52a.6.6 0 001.187.181l1.76-11.52a.6.6 0 00-.503-.683zM437.855 24h-4.718v-9.338h4.592c.83 0 1.479.229 1.946.686.476.448.714 1.013.714 1.694 0 .56-.159 1.036-.476 1.428-.308.383-.691.62-1.148.714.504.075.928.336 1.274.784.354.439.532.943.532 1.512 0 .747-.243 1.353-.728 1.82-.476.467-1.139.7-1.988.7zm-.462-5.474c.41 0 .732-.112.966-.336.233-.224.35-.513.35-.868 0-.364-.117-.658-.35-.882-.234-.224-.556-.336-.966-.336h-2.618v2.422h2.618zm.07 4.032c.448 0 .798-.112 1.05-.336.252-.233.378-.555.378-.966 0-.364-.126-.667-.378-.91-.252-.252-.602-.378-1.05-.378h-2.688v2.59h2.688zM447.773 24h-1.47v-.728c-.523.597-1.251.896-2.184.896a2.504 2.504 0 01-1.638-.588c-.476-.401-.714-.952-.714-1.652 0-.719.233-1.265.7-1.638a2.6 2.6 0 011.652-.56c.961 0 1.689.29 2.184.868V19.59c0-.392-.145-.7-.434-.924-.29-.224-.672-.336-1.148-.336-.756 0-1.424.285-2.002.854l-.602-1.022c.765-.728 1.712-1.092 2.842-1.092.83 0 1.507.196 2.03.588.522.392.784 1.013.784 1.862V24zm-3.08-.84c.737 0 1.274-.233 1.61-.7v-1.022c-.336-.467-.873-.7-1.61-.7-.42 0-.766.112-1.036.336a1.088 1.088 0 00-.406.882c0 .364.135.658.406.882.27.215.616.322 1.036.322zm8.066 1.008c-1.027 0-1.867-.331-2.52-.994-.654-.672-.98-1.526-.98-2.562 0-1.027.326-1.871.98-2.534.653-.672 1.493-1.008 2.52-1.008 1.129 0 1.992.401 2.59 1.204l-.966.896c-.374-.532-.892-.798-1.554-.798-.616 0-1.111.21-1.484.63-.374.41-.56.947-.56 1.61 0 .663.186 1.204.56 1.624.373.42.868.63 1.484.63.644 0 1.162-.266 1.554-.798l.966.896c-.598.803-1.461 1.204-2.59 1.204zM462.966 24h-1.848l-2.072-2.786-.938.966V24h-1.47v-9.338h1.47V20.5l2.982-3.262h1.82l-2.814 3.066 2.87 3.696zm4.094.168c-1.026 0-1.876-.327-2.548-.98-.662-.663-.994-1.521-.994-2.576 0-.99.322-1.825.966-2.506.654-.69 1.475-1.036 2.464-1.036.999 0 1.802.345 2.408 1.036.616.69.924 1.573.924 2.646v.35h-5.222c.056.532.276.975.658 1.33.383.355.882.532 1.498.532.346 0 .691-.065 1.036-.196.355-.13.649-.313.882-.546l.672.966c-.681.653-1.596.98-2.744.98zm1.792-4.102a1.93 1.93 0 00-.518-1.246c-.317-.364-.779-.546-1.386-.546-.578 0-1.031.182-1.358.546-.326.355-.508.77-.546 1.246h3.808zM477.765 24h-1.47v-4.228c0-.933-.452-1.4-1.358-1.4-.354 0-.686.089-.994.266a2.394 2.394 0 00-.742.644V24h-1.47v-6.762h1.47v.924a3.203 3.203 0 011.008-.77c.42-.215.878-.322 1.372-.322.719 0 1.26.187 1.624.56.374.373.56.91.56 1.61V24zm8.14 0h-1.47v-.924c-.56.728-1.284 1.092-2.17 1.092-.887 0-1.61-.317-2.17-.952-.56-.635-.84-1.498-.84-2.59 0-1.083.28-1.946.84-2.59.56-.644 1.283-.966 2.17-.966.886 0 1.61.369 2.17 1.106v-3.514h1.47V24zm-3.22-1.134c.345 0 .681-.084 1.008-.252.326-.168.574-.383.742-.644v-2.688a1.878 1.878 0 00-.742-.644 2.09 2.09 0 00-1.008-.266c-.579 0-1.041.21-1.386.63-.346.42-.518.961-.518 1.624 0 .663.172 1.204.518 1.624.345.41.807.616 1.386.616z" fill="#9BC3F5"/><defs><filter id="filter0_i" x="0" y="0" width="128" height="40" filterUnits="userSpaceOnUse" color-interpolation-filters="sRGB"><feFlood flood-opacity="0" result="BackgroundImageFix"/><feBlend in="SourceGraphic" in2="BackgroundImageFix" result="shape"/><feColorMatrix in="SourceAlpha" values="0 0 0 0 0 0 0 0 0 0 0 0 0 0 0 0 0 0 127 0" result="hardAlpha"/><feOffset dx="-1"/><feComposite in2="hardAlpha" operator="arithmetic" k2="-1" k3="1"/><feColorMatrix values="0 0 0 0 0.901961 0 0 0 0 0.941176 0 0 0 0 0.992157 0 0 0 1 0"/><feBlend in2="shape" result="effect1_innerShadow"/></filter><filter id="filter1_i" x="128" y="0" width="128" height="40" filterUnits="userSpaceOnUse" color-interpolation-filters="sRGB"><feFlood flood-opacity="0" result="BackgroundImageFix"/><feBlend in="SourceGraphic" in2="BackgroundImageFix" result="shape"/><feColorMatrix in="SourceAlpha" values="0 0 0 0 0 0 0 0 0 0 0 0 0 0 0 0 0 0 127 0" result="hardAlpha"/><feOffset dx="-1"/><feComposite in2="hardAlpha" operator="arithmetic" k2="-1" k3="1"/><feColorMatrix values="0 0 0 0 0.901961 0 0 0 0 0.941176 0 0 0 0 0.992157 0 0 0 1 0"/><feBlend in2="shape" result="effect1_innerShadow"/></filter><filter id="filter2_i" x="256" y="0" width="128" height="40" filterUnits="userSpaceOnUse" color-interpolation-filters="sRGB"><feFlood flood-opacity="0" result="BackgroundImageFix"/><feBlend in="SourceGraphic" in2="BackgroundImageFix" result="shape"/><feColorMatrix in="SourceAlpha" values="0 0 0 0 0 0 0 0 0 0 0 0 0 0 0 0 0 0 127 0" result="hardAlpha"/><feOffset dx="-1"/><feComposite in2="hardAlpha" operator="arithmetic" k2="-1" k3="1"/><feColorMatrix values="0 0 0 0 0.901961 0 0 0 0 0.941176 0 0 0 0 0.992157 0 0 0 1 0"/><feBlend in2="shape" result="effect1_innerShadow"/></filter><clipPath id="clip0"><path fill="#fff" transform="translate(154.5 8)" d="M0 0h74v24H0z"/></clipPath></defs></svg>